<?xml version="1.0" standalone="no"?>
<!DOCTYPE svg PUBLIC "-//W3C//DTD SVG 20010904//EN"
 "http://www.w3.org/TR/2001/REC-SVG-20010904/DTD/svg10.dtd">
<svg version="1.0" xmlns="http://www.w3.org/2000/svg"
 width="1024.000000pt" height="1024.000000pt" viewBox="0 0 1024.000000 1024.000000"
 preserveAspectRatio="xMidYMid meet">
<metadata>
Created by potrace 1.11, written by Peter Selinger 2001-2013
</metadata>
<g transform="translate(0.000000,1024.000000) scale(0.100000,-0.100000)"
fill="#000000" stroke="none">
<path d="M4630 10195 c-250 -41 -462 -139 -666 -311 -27 -23 -80 -67 -118 -99
-80 -67 -93 -80 -123 -122 -19 -27 -20 -33 -8 -50 12 -16 24 -20 62 -17 26 1
59 5 73 7 14 3 42 8 64 12 66 11 70 13 209 49 183 49 479 153 642 226 221 100
394 185 407 201 21 25 11 59 -23 76 -77 38 -361 53 -519 28z"/>
<path d="M5727 10174 c-1 -1 -33 -5 -72 -8 -185 -17 -308 -53 -501 -147 -67
-32 -124 -59 -127 -59 -12 0 -123 -69 -144 -90 -49 -45 -12 -78 99 -87 107 -9
358 -8 478 1 109 8 125 9 225 21 100 11 129 15 155 19 14 2 59 10 100 16 41 7
84 14 95 16 23 5 83 15 105 19 76 14 230 48 248 55 27 12 30 60 5 82 -53 45
-264 122 -393 142 -55 9 -268 25 -273 20z"/>
<path d="M3848 10045 c-2 -2 -31 -6 -66 -9 -194 -19 -416 -107 -602 -237 -74
-52 -215 -186 -258 -244 -210 -287 -226 -312 -238 -374 -6 -26 -3 -31 20 -37
33 -8 99 18 266 103 109 56 285 158 300 173 3 3 45 31 93 63 154 101 592 442
619 481 12 17 9 39 -7 61 -12 14 -29 20 -70 21 -30 1 -56 0 -57 -1z"/>
<path d="M6445 9885 c-38 -7 -81 -16 -95 -19 -14 -4 -36 -9 -50 -12 -14 -2
-36 -7 -50 -11 -14 -3 -32 -7 -40 -8 -8 -1 -33 -5 -55 -10 -22 -4 -45 -9 -52
-11 -7 -1 -37 -14 -68 -28 -60 -27 -63 -38 -18 -78 26 -23 233 -87 368 -114
11 -2 31 -6 45 -9 14 -4 86 -17 160 -30 128 -22 181 -29 295 -40 28 -3 68 -7
90 -10 22 -2 83 -7 135 -10 388 -23 415 -22 423 13 6 27 -18 66 -60 97 -21 16
-40 32 -43 35 -20 26 -256 154 -321 175 -13 4 -28 9 -34 11 -5 2 -41 13 -80
23 -38 11 -70 20 -70 21 0 1 -13 3 -30 5 -16 3 -50 8 -75 13 -69 13 -296 11
-375 -3z"/>
<path d="M2733 9640 c-206 -71 -385 -188 -540 -353 -100 -108 -219 -293 -248
-387 -9 -29 -51 -126 -66 -153 -28 -50 -62 -197 -52 -224 24 -63 325 180 619
503 138 151 231 265 449 549 18 22 19 49 5 76 -15 27 -67 24 -167 -11z"/>
<path d="M5037 9654 c-1 -1 -65 -4 -142 -8 -77 -4 -153 -8 -170 -10 -16 -2
-61 -7 -100 -10 -38 -3 -81 -8 -95 -11 -14 -2 -45 -7 -70 -10 -44 -6 -132 -20
-180 -30 -14 -3 -38 -8 -55 -11 -16 -2 -68 -14 -115 -25 -47 -11 -93 -22 -104
-24 -55 -12 -315 -90 -381 -116 -317 -120 -318 -120 -520 -220 -876 -432
-1597 -1146 -2035 -2016 -121 -242 -175 -372 -261 -637 -42 -129 -112 -387
-125 -466 -3 -14 -11 -61 -19 -105 -26 -143 -28 -155 -39 -255 -4 -30 -9 -66
-11 -80 -12 -68 -20 -269 -19 -490 1 -256 9 -393 28 -525 10 -61 17 -111 22
-155 3 -25 17 -99 30 -165 14 -66 27 -131 30 -145 3 -14 7 -33 10 -42 3 -9 7
-25 9 -35 14 -72 111 -386 134 -438 5 -11 31 -76 57 -145 39 -101 214 -466
254 -530 5 -8 39 -64 75 -124 64 -107 228 -348 282 -415 229 -285 438 -501
689 -716 7 -5 26 -21 44 -35 18 -14 37 -30 44 -35 6 -6 54 -42 106 -81 433
-324 942 -576 1455 -723 134 -39 376 -95 453 -107 20 -3 44 -7 52 -9 8 -2 38
-7 65 -10 28 -4 61 -8 75 -10 14 -2 48 -7 75 -10 28 -3 66 -8 85 -10 184 -25
802 -25 931 0 10 2 46 6 81 10 151 14 457 75 662 131 399 110 885 322 1179
516 32 21 60 38 62 38 13 0 363 253 410 297 11 10 33 28 49 41 165 128 452
419 627 637 252 313 470 676 639 1060 86 195 225 637 257 815 2 14 10 57 18
95 20 105 26 142 44 285 38 313 44 654 16 950 -10 108 -17 174 -20 192 -3 11
-7 46 -11 77 -3 31 -8 58 -9 61 -2 3 -6 24 -9 46 -7 42 -12 73 -21 114 -3 14
-7 34 -9 45 -2 11 -14 61 -26 110 -12 50 -23 98 -25 108 -6 25 -53 179 -82
267 -62 185 -173 452 -249 595 -17 33 -44 85 -60 115 -15 30 -52 95 -81 143
-29 48 -53 89 -53 91 0 11 -193 288 -273 391 -184 239 -454 518 -672 698 -11
9 -40 32 -64 51 -434 357 -1003 656 -1566 823 -66 19 -136 39 -155 43 -19 5
-44 11 -55 13 -126 32 -379 79 -490 91 -27 4 -69 9 -91 12 -92 13 -576 36
-587 28z m453 -97 c19 -3 67 -8 105 -11 128 -12 323 -44 500 -81 427 -91 917
-283 1298 -509 462 -274 867 -621 1198 -1026 471 -576 794 -1270 923 -1985 3
-16 8 -41 11 -55 3 -14 8 -50 11 -80 3 -30 7 -57 9 -60 2 -3 6 -37 10 -75 3
-39 8 -81 10 -95 23 -151 23 -686 0 -854 -4 -32 -11 -85 -20 -171 -3 -27 -8
-61 -10 -75 -3 -14 -12 -65 -20 -115 -9 -49 -20 -106 -25 -125 -5 -19 -11 -46
-14 -60 -2 -14 -14 -63 -26 -110 -119 -467 -315 -912 -588 -1329 -66 -102
-177 -258 -191 -271 -3 -3 -25 -30 -48 -60 -23 -30 -50 -64 -60 -75 -10 -11
-43 -49 -73 -85 -58 -68 -303 -317 -380 -385 -41 -37 -165 -141 -200 -168 -16
-13 -98 -77 -115 -90 -168 -129 -431 -290 -674 -412 -93 -47 -172 -85 -175
-85 -3 0 -31 -12 -63 -26 -142 -65 -463 -176 -628 -216 -176 -43 -381 -85
-460 -93 -28 -3 -57 -8 -65 -10 -8 -2 -42 -7 -75 -10 -33 -4 -76 -8 -95 -11
-181 -23 -730 -22 -860 0 -14 3 -52 7 -85 10 -33 3 -78 8 -100 11 -46 7 -211
34 -240 40 -88 17 -136 27 -226 50 -57 15 -111 28 -119 30 -32 8 -166 48 -185
56 -11 4 -40 15 -65 23 -240 79 -562 225 -785 356 -49 29 -99 58 -110 64 -140
78 -453 310 -630 466 -94 82 -359 353 -440 450 -379 450 -665 964 -839 1510
-25 80 -48 154 -50 165 -2 11 -9 32 -15 48 -6 15 -8 27 -6 27 2 0 0 11 -5 25
-5 14 -12 36 -14 48 -44 217 -57 288 -62 326 -3 25 -7 53 -9 61 -3 8 -7 40
-10 70 -3 30 -8 66 -10 80 -27 178 -28 794 0 961 2 13 6 47 10 74 10 85 15
119 21 155 4 19 8 44 10 55 16 99 77 370 91 405 3 8 8 24 10 35 12 69 132 401
201 561 70 160 251 504 294 559 4 6 41 60 81 120 197 299 493 637 756 866 41
35 79 69 85 74 83 76 349 269 506 366 150 94 214 129 405 223 514 252 1043
397 1615 442 47 3 87 8 89 10 5 5 582 -4 621 -9z"/>
<path d="M5583 9239 c-152 -20 -309 -165 -353 -328 -26 -96 -4 -236 50 -310
11 -16 20 -31 20 -34 0 -9 65 -74 101 -100 51 -38 153 -74 232 -81 54 -6 89
-2 173 19 59 14 119 34 134 45 56 40 79 144 42 190 l-19 23 -56 -26 c-79 -36
-134 -42 -199 -23 -105 30 -171 127 -172 251 -1 113 53 190 129 188 64 -2 125
-43 177 -119 54 -80 90 -114 115 -109 10 2 23 4 29 4 16 1 60 42 73 69 27 52
-4 219 -46 250 -9 6 -36 12 -59 12 -26 0 -62 11 -100 30 -70 36 -195 59 -271
49z"/>
<path d="M4172 9160 c-149 -51 -188 -105 -122 -171 16 -16 30 -31 31 -32 1 -1
-8 -21 -20 -45 -20 -39 -23 -41 -44 -31 -47 24 -55 38 -50 83 5 37 2 45 -20
63 -36 28 -90 27 -188 -3 -46 -14 -92 -27 -101 -29 -43 -9 -108 -46 -123 -69
-25 -37 -13 -74 30 -92 19 -8 43 -14 53 -14 19 0 156 -88 226 -144 39 -32 65
-89 91 -202 15 -66 15 -67 -10 -110 -30 -50 -31 -65 -7 -93 26 -31 66 -31 185
0 166 44 189 53 221 93 40 49 30 81 -39 116 -53 28 -52 26 -103 205 l-18 60
53 139 c28 76 53 139 55 140 79 47 95 84 57 137 -26 36 -48 36 -157 -1z"/>
<path d="M6345 9028 c-20 -16 -25 -27 -21 -50 2 -17 14 -39 25 -49 19 -18 19
-21 5 -71 -9 -29 -33 -93 -54 -143 -98 -230 -110 -248 -180 -275 -49 -18 -60
-29 -60 -55 0 -44 36 -71 167 -125 70 -29 151 -63 178 -75 28 -12 66 -28 85
-35 19 -8 52 -27 72 -43 41 -33 85 -38 121 -14 31 21 83 72 102 101 24 36 24
109 1 135 -26 29 -43 27 -106 -16 -59 -40 -100 -45 -162 -19 -65 27 -64 28 8
201 56 136 118 271 130 284 2 2 20 5 40 7 44 3 74 29 74 62 0 50 -105 124
-249 174 -84 29 -145 31 -176 6z"/>
<path d="M3083 8722 c-40 -31 -112 -81 -160 -111 -330 -204 -330 -204 -309
-255 11 -28 17 -31 60 -33 62 -2 85 -24 182 -170 122 -183 169 -302 135 -336
-30 -30 9 -94 50 -84 13 4 98 52 189 108 91 56 179 109 195 119 17 9 46 27 65
38 19 11 60 34 90 50 l55 28 -2 79 c-2 98 -39 182 -86 198 -41 13 -57 -7 -63
-84 -8 -94 -37 -137 -128 -196 -67 -43 -94 -46 -123 -15 -37 39 -83 113 -83
134 0 21 46 46 75 41 12 -2 34 -15 50 -28 81 -70 109 19 45 145 -36 71 -102
146 -136 154 -48 12 -72 -32 -49 -89 17 -40 4 -71 -37 -88 -41 -18 -48 -12
-95 70 -32 58 -34 67 -22 89 7 15 42 39 85 61 76 37 91 38 202 17 38 -7 61 14
62 57 0 52 -85 142 -145 152 -25 5 -41 -3 -102 -51z"/>
<path d="M7158 8646 c-20 -10 -23 -19 -23 -76 l0 -65 -113 -162 c-62 -89 -119
-180 -127 -202 -19 -56 -11 -129 21 -193 54 -108 228 -241 343 -263 83 -16
123 -16 168 -1 61 21 73 32 162 146 41 52 77 97 81 100 3 3 27 33 53 67 66 87
74 93 113 93 52 0 74 15 74 51 0 57 -34 96 -136 154 -81 46 -116 53 -142 27
-19 -19 -20 -24 -7 -71 l13 -50 -51 -73 c-28 -40 -54 -75 -57 -78 -3 -3 -23
-31 -44 -62 -59 -88 -87 -110 -143 -115 -86 -7 -165 61 -165 142 0 41 28 91
111 201 97 129 103 135 157 138 51 3 74 22 74 64 0 37 -31 72 -117 134 -115
82 -201 116 -245 94z"/>
<path d="M4947 8194 c-1 -1 -45 -5 -97 -8 -52 -4 -102 -9 -110 -11 -8 -2 -37
-6 -65 -10 -135 -17 -447 -93 -550 -135 -11 -4 -54 -20 -95 -35 -112 -42 -299
-129 -411 -193 -125 -70 -363 -236 -449 -311 -14 -12 -52 -45 -85 -74 -156
-133 -353 -351 -477 -527 -251 -357 -428 -808 -484 -1235 -3 -27 -8 -59 -10
-70 -19 -98 -26 -568 -10 -690 43 -336 92 -539 198 -810 50 -128 169 -370 241
-491 168 -283 540 -669 842 -875 44 -30 82 -56 85 -59 5 -5 28 -19 120 -73 19
-11 64 -36 100 -55 36 -19 74 -40 85 -47 27 -16 213 -96 300 -128 136 -50 310
-100 430 -123 11 -2 31 -6 45 -9 14 -3 42 -8 64 -11 21 -3 47 -7 58 -9 24 -5
95 -13 203 -24 84 -9 502 -7 545 2 30 6 129 19 150 19 15 0 247 43 285 52 230
57 560 190 774 313 330 189 652 466 877 753 187 238 339 501 438 754 56 141
137 413 151 506 2 14 9 52 15 85 5 33 13 80 16 105 3 25 7 56 10 70 8 49 18
227 18 330 -1 190 -21 432 -50 595 -8 44 -16 89 -18 100 -39 230 -162 538
-323 805 -38 63 -76 126 -84 140 -28 48 -170 242 -207 283 -130 143 -258 271
-352 353 -25 21 -51 45 -59 52 -49 47 -298 220 -401 280 -250 146 -435 222
-835 341 -26 8 -90 22 -160 35 -21 4 -114 17 -155 22 -108 13 -552 27 -563 18z
m391 -88 c100 -8 172 -16 192 -21 8 -2 35 -7 60 -10 25 -3 52 -8 60 -10 8 -2
31 -7 50 -10 205 -34 486 -149 523 -213 38 -66 13 -155 -75 -270 -37 -48 -112
-109 -845 -689 l-93 -73 0 135 c0 148 -3 140 66 149 68 8 185 44 259 79 85 41
153 100 188 164 47 88 28 200 -50 288 -69 78 -248 157 -408 180 -79 11 -273
13 -350 3 -240 -31 -430 -133 -485 -259 -72 -167 42 -331 288 -414 63 -21 210
-50 280 -54 9 -1 12 -51 12 -216 l0 -215 -227 -181 c-126 -99 -244 -193 -263
-209 -60 -48 -323 -254 -362 -284 l-38 -28 3 883 c2 880 2 884 23 929 23 48
87 120 144 162 96 71 272 135 450 164 69 11 78 12 180 20 52 3 96 7 97 8 5 4
242 -2 321 -8z m-63 -510 c116 -24 242 -84 268 -127 16 -27 -26 -74 -96 -108
-109 -53 -241 -78 -392 -75 -78 2 -119 7 -233 30 -98 20 -212 89 -212 128 0
40 100 107 192 130 16 3 29 7 30 7 91 24 128 28 263 25 83 -2 164 -6 180 -10z
m-2036 -280 c58 -32 103 -145 119 -302 10 -92 8 -3696 -2 -3749 -11 -58 -47
-126 -79 -149 -43 -32 -112 -27 -191 13 -36 19 -73 41 -83 50 -10 9 -29 24
-43 34 -153 106 -435 522 -550 812 -70 175 -155 457 -175 575 -3 19 -10 58
-15 85 -5 28 -12 68 -15 90 -3 22 -8 51 -10 65 -27 157 -27 562 0 745 80 550
320 1079 672 1485 12 14 31 36 43 50 61 73 168 172 204 190 47 23 90 25 125 6z
m3879 -70 c94 -20 249 -150 368 -310 42 -55 81 -108 87 -116 27 -34 51 -72
124 -198 147 -250 280 -607 329 -882 3 -14 9 -50 14 -80 20 -110 25 -189 25
-400 0 -204 -4 -272 -25 -435 -11 -79 -13 -89 -41 -235 -102 -527 -396 -1097
-631 -1225 -55 -30 -113 -38 -165 -22 -43 14 -122 83 -145 128 -17 33 -75 160
-105 229 -8 19 -28 63 -44 97 -16 35 -29 65 -29 67 0 3 -16 40 -36 83 -20 43
-72 159 -116 258 -44 99 -88 198 -98 220 -10 22 -99 222 -198 445 -99 223
-191 430 -205 460 -14 30 -71 159 -127 285 -56 127 -112 253 -125 281 -97 212
-175 394 -175 405 0 8 46 50 102 94 55 44 106 85 112 90 6 6 34 28 61 50 28
21 59 47 70 57 11 10 63 53 116 95 275 223 465 377 469 383 3 3 25 21 50 40
25 19 47 37 50 40 3 3 25 21 50 41 77 62 137 76 238 55z m-2108 -3096 c-1
-1063 2 -1526 10 -1540 21 -40 87 -57 131 -34 35 18 59 71 59 130 l0 44 48 1
c26 1 110 2 187 3 l140 1 2 107 c2 71 -1 109 -8 114 -7 4 -41 7 -78 8 l-66 1
-1 100 c0 55 1 106 4 113 3 8 28 12 78 12 l75 0 -3 113 -3 112 -183 2 c-101 1
-186 4 -189 7 -3 3 -5 22 -5 43 0 21 1 517 2 1103 1 1062 1 1065 21 1025 23
-48 67 -144 198 -432 54 -120 112 -247 129 -283 16 -36 40 -87 52 -115 12 -27
38 -84 57 -125 19 -41 53 -115 75 -165 22 -49 60 -132 84 -184 24 -51 44 -95
44 -96 0 -2 15 -36 34 -77 18 -40 44 -95 56 -123 13 -27 50 -108 83 -180 53
-117 159 -348 232 -510 15 -33 40 -88 56 -123 33 -72 58 -154 64 -209 7 -61 8
-171 2 -181 -4 -5 -9 -24 -12 -43 -20 -119 -146 -279 -265 -336 -142 -67 -366
-122 -605 -149 -165 -18 -587 -25 -685 -12 -195 27 -419 187 -531 380 -80 137
-128 282 -157 473 -15 107 -17 190 -15 760 1 352 3 741 3 865 l0 225 233 185
c127 102 241 192 252 202 11 9 79 62 150 119 72 56 154 122 184 146 29 23 55
43 57 43 3 0 4 -684 4 -1520z"/>
<path d="M2213 8061 c-17 -11 -35 -26 -40 -34 -4 -8 -32 -40 -60 -71 -79 -85
-104 -144 -78 -186 4 -6 24 -19 45 -30 21 -11 41 -28 44 -37 22 -77 17 -157
-11 -151 -27 5 -72 71 -79 113 -7 48 -17 61 -49 69 -44 11 -86 -20 -190 -139
-61 -70 -78 -118 -61 -171 9 -29 49 -46 82 -34 38 15 115 -38 272 -185 104
-98 135 -140 134 -180 -2 -46 31 -71 85 -66 14 1 102 89 176 175 58 67 70 100
51 144 -12 31 -15 32 -70 32 -43 0 -66 6 -91 23 -18 12 -33 25 -33 29 0 19 32
35 67 33 21 -2 96 -6 167 -9 l129 -7 45 48 c72 77 139 156 150 178 13 26 -8
79 -39 95 -17 10 -31 10 -61 0 -38 -11 -437 -13 -493 -2 -31 6 -48 50 -49 126
0 54 4 67 38 119 38 57 41 79 18 115 -15 22 -64 24 -99 3z"/>
<path d="M8050 7990 c-23 -23 -25 -33 -8 -59 10 -16 8 -26 -8 -56 -41 -77
-237 -243 -359 -305 -47 -23 -68 -29 -97 -24 -31 5 -38 3 -53 -19 -14 -23 -15
-29 -1 -61 8 -20 60 -82 115 -139 54 -56 123 -131 152 -167 112 -136 191 -185
295 -183 64 1 101 15 153 59 53 45 64 76 56 165 -7 88 -14 80 83 94 89 12 156
83 154 163 -1 82 -43 153 -168 282 -73 76 -117 125 -176 197 -62 74 -101 90
-138 53z m240 -351 c15 -28 6 -59 -27 -96 -34 -38 -63 -53 -100 -53 -33 0 -53
16 -53 41 0 21 125 129 150 129 11 0 24 -9 30 -21z m-250 -224 c37 -45 -3
-135 -76 -170 -34 -16 -39 -16 -70 -1 -53 25 -46 54 28 126 63 61 94 74 118
45z"/>
<path d="M1033 5725 c-38 -27 -53 -97 -53 -262 -1 -104 15 -171 42 -175 7 0
20 -2 28 -2 8 -1 34 13 58 31 46 35 56 37 202 33 65 -2 78 -3 179 -15 29 -4
69 -8 88 -10 24 -2 47 -15 72 -39 23 -23 46 -36 63 -36 59 0 80 57 81 228 2
109 -1 133 -18 166 -28 55 -56 63 -98 27 -17 -15 -41 -33 -52 -38 -20 -11
-139 -10 -270 1 -205 18 -202 17 -235 71 -24 39 -51 45 -87 20z"/>
<path d="M9005 5680 c-16 -11 -33 -30 -38 -42 -7 -19 -2 -28 29 -55 21 -18 42
-33 49 -33 16 0 61 -51 70 -77 10 -34 9 -103 -2 -114 -5 -5 -18 -11 -29 -13
-27 -5 -247 -18 -371 -21 -98 -2 -101 -2 -114 22 -19 36 -65 66 -89 58 -36
-12 -53 -62 -56 -167 -3 -150 24 -263 70 -294 37 -23 73 -11 93 31 21 44 43
50 243 61 241 13 252 12 305 -38 41 -39 72 -46 97 -20 24 23 25 49 13 262 -9
159 -10 256 -2 310 7 54 -16 88 -80 117 -72 33 -149 38 -188 13z"/>
<path d="M1637 5103 c-8 -10 -19 -31 -23 -47 -5 -23 -19 -34 -68 -56 -105 -47
-200 -69 -379 -85 -48 -4 -64 -1 -86 14 -47 34 -77 36 -96 8 -43 -66 -1 -262
64 -300 43 -25 58 -21 87 24 28 46 100 85 170 92 60 7 72 -3 55 -50 -14 -41
-79 -157 -147 -263 -62 -98 -107 -188 -111 -226 -3 -27 1 -36 21 -49 25 -17
108 -19 176 -4 19 4 51 10 70 13 19 3 64 12 100 20 95 21 126 26 216 33 80 6
83 5 126 -26 38 -27 48 -30 70 -22 45 17 51 72 22 189 -20 80 -48 130 -81 143
-33 12 -59 -3 -72 -44 -6 -17 -19 -37 -29 -43 -26 -17 -128 -38 -146 -31 -26
10 -3 59 134 287 75 126 81 138 79 185 -6 130 -64 255 -119 255 -9 0 -24 -8
-33 -17z"/>
<path d="M9148 4745 c-12 -27 -48 -47 -114 -64 -36 -10 -243 -54 -314 -67 -65
-12 -190 -50 -240 -72 -195 -86 -211 -254 -30 -314 91 -30 392 -240 462 -323
15 -18 29 -47 30 -65 3 -40 36 -65 74 -56 64 16 123 294 71 334 -30 23 -48 21
-74 -8 -14 -17 -34 -30 -43 -30 -25 0 -41 24 -36 51 29 160 57 232 92 237 15
2 25 -7 40 -40 16 -37 23 -43 49 -43 24 0 34 7 52 40 30 55 74 224 80 312 5
63 3 76 -17 102 -27 39 -65 42 -82 6z m-329 -437 c-16 -73 -30 -108 -43 -108
-15 0 -99 54 -115 74 -20 24 -1 43 57 59 67 19 95 25 103 20 4 -1 3 -22 -2
-45z"/>
<path d="M1793 4018 c-23 -5 -56 -22 -72 -37 -69 -64 -16 -132 121 -155 60
-10 64 -33 11 -69 -49 -33 -228 -117 -316 -148 l-67 -24 -50 28 -50 28 -26
-26 c-23 -23 -25 -31 -19 -73 7 -53 80 -214 127 -283 41 -58 73 -82 111 -81
37 1 47 15 47 69 0 36 5 46 40 76 23 19 69 50 103 68 87 48 255 119 279 119
17 0 19 -4 13 -32 -4 -18 -16 -42 -26 -53 -29 -32 -31 -88 -6 -127 33 -49 91
-54 152 -14 42 28 98 105 105 147 7 36 4 45 -20 72 -15 18 -55 86 -90 152 -35
66 -76 144 -92 174 -16 30 -37 77 -46 105 -13 37 -26 55 -50 69 -36 21 -116
28 -179 15z"/>
<path d="M8313 3892 c-12 -2 -34 -17 -47 -33 -41 -48 -94 -151 -100 -193 -12
-73 39 -108 104 -72 21 12 30 12 65 -2 53 -21 95 -50 95 -67 0 -8 -10 -21 -22
-29 -20 -13 -260 -91 -312 -102 -57 -11 -119 -39 -144 -63 -15 -15 -44 -61
-65 -100 -69 -134 -37 -218 63 -166 28 14 35 14 103 -9 95 -32 160 -68 274
-152 62 -46 94 -77 98 -94 15 -65 26 -80 60 -80 42 0 104 60 139 133 32 69 37
108 18 147 -14 30 -18 32 -51 24 -61 -13 -115 -8 -161 16 -47 23 -90 58 -90
72 0 23 87 57 285 113 206 57 287 90 298 118 9 23 -20 73 -61 105 -22 18 -107
73 -189 123 -152 93 -251 163 -268 189 -5 8 -10 30 -11 48 -4 51 -37 82 -81
74z"/>
<path d="M2337 3229 c-15 -9 -17 -19 -12 -58 5 -44 3 -51 -29 -90 -60 -72
-238 -217 -337 -274 -46 -27 -92 -34 -118 -18 -21 14 -58 -8 -64 -36 -4 -20
26 -62 167 -235 94 -115 179 -222 188 -236 9 -15 20 -31 25 -37 4 -5 16 -22
26 -37 21 -33 60 -37 142 -13 107 32 168 102 124 146 -14 14 -31 17 -81 15
-96 -4 -168 32 -229 117 -38 53 -37 76 9 118 90 85 130 99 151 53 10 -22 8
-33 -16 -80 -26 -51 -26 -54 -9 -73 67 -74 334 129 287 218 -14 26 -45 35 -72
20 -52 -27 -76 -28 -100 -3 -13 14 -24 31 -25 40 -2 15 100 102 137 116 26 10
87 -45 123 -112 26 -47 27 -57 21 -118 -6 -58 -4 -70 12 -84 47 -42 115 -9
162 78 36 66 30 82 -62 175 -46 46 -130 143 -187 214 -160 201 -185 222 -233
194z"/>
<path d="M7603 2866 c-162 -60 -278 -184 -311 -333 -6 -23 -8 -77 -7 -119 3
-64 9 -88 39 -149 98 -199 314 -293 516 -225 154 52 276 186 318 350 2 8 5 45
7 82 9 153 -84 297 -242 375 -68 34 -84 37 -166 39 -75 2 -103 -2 -154 -20z
m128 -272 c80 -42 190 -144 206 -190 23 -67 -23 -127 -97 -127 -76 0 -258 111
-313 191 -61 88 -14 176 90 167 24 -2 74 -20 114 -41z"/>
<path d="M2988 2553 c-13 -15 -13 -24 -3 -53 17 -49 4 -89 -61 -185 -81 -121
-186 -257 -214 -277 -14 -10 -42 -20 -63 -22 -51 -7 -57 -12 -57 -51 0 -49 45
-101 150 -174 110 -77 182 -100 209 -67 7 8 10 35 8 63 -4 53 4 78 45 140 39
58 61 69 87 42 24 -26 21 -61 -19 -180 -34 -100 -34 -159 0 -214 55 -90 194
-161 257 -132 31 14 35 32 17 78 -16 39 -16 42 12 107 34 79 39 176 12 228
l-17 30 64 11 c79 14 113 37 147 100 21 38 26 58 23 100 -7 104 -67 176 -229
275 -56 34 -121 78 -146 99 -114 93 -188 120 -222 82z m299 -291 c6 -4 16 -19
22 -34 12 -31 -17 -97 -56 -128 -30 -23 -81 -26 -109 -6 -23 17 -19 26 55 118
44 56 63 66 88 50z"/>
<path d="M6928 2329 c-16 -4 -56 -23 -91 -43 -212 -118 -263 -210 -137 -246
44 -13 59 -23 85 -60 33 -47 135 -217 135 -225 0 -3 14 -27 30 -53 34 -56 36
-73 15 -131 -13 -39 -13 -42 9 -68 18 -20 31 -26 60 -25 69 3 289 137 321 196
17 31 17 36 3 58 -9 14 -35 30 -59 37 -24 7 -50 18 -58 24 -25 21 -108 152
-171 271 -59 112 -62 120 -52 155 24 81 -16 130 -90 110z"/>
<path d="M3853 2050 c-12 -5 -24 -17 -27 -28 -7 -20 11 -72 25 -72 12 0 23
-42 20 -80 -6 -92 -48 -228 -114 -370 -25 -53 -31 -59 -80 -84 -29 -15 -37
-25 -37 -46 0 -94 271 -183 322 -106 13 19 8 50 -12 76 -11 14 -20 41 -20 61
0 47 26 131 49 161 l19 23 31 -29 c31 -30 76 -101 146 -231 68 -127 138 -232
165 -249 26 -15 29 -14 53 4 34 27 56 75 127 280 33 96 75 204 92 240 29 55
38 66 73 77 68 23 85 70 40 115 -32 33 -169 78 -234 78 -42 0 -53 -4 -66 -24
-17 -25 -13 -45 18 -88 19 -25 19 -32 8 -85 -13 -59 -34 -93 -57 -93 -19 0
-53 49 -149 218 -48 84 -98 166 -111 181 -40 47 -226 95 -281 71z"/>
<path d="M6305 2042 c-17 -11 -62 -28 -100 -40 -219 -66 -318 -93 -357 -98
-23 -4 -53 -10 -64 -15 -31 -11 -64 -88 -70 -161 -5 -53 -2 -70 18 -108 19
-38 28 -45 56 -48 44 -4 65 16 108 101 19 37 40 67 48 67 23 0 44 -44 72 -147
35 -129 53 -219 54 -269 0 -32 -6 -46 -30 -69 -36 -35 -38 -64 -6 -94 20 -19
35 -23 80 -22 97 1 290 61 345 107 57 47 44 101 -28 119 -38 9 -48 17 -72 60
-26 46 -72 188 -85 258 -2 17 -6 33 -8 36 -2 3 -7 29 -11 57 -5 40 -3 53 8 57
16 6 59 -14 84 -38 33 -34 62 -46 93 -41 39 6 54 18 70 56 25 60 -47 191 -126
230 -49 24 -42 24 -79 2z"/>
<path d="M5077 1829 c-28 -28 -35 -46 -45 -104 -30 -184 -221 -575 -280 -575
-27 0 -42 -15 -48 -44 -7 -38 31 -73 90 -81 77 -12 210 -1 241 19 36 24 31 64
-12 91 -35 22 -42 45 -17 66 20 16 174 20 234 5 58 -14 64 -42 17 -71 -37 -23
-46 -58 -22 -85 23 -25 118 -40 256 -40 165 0 219 20 219 79 0 31 -16 51 -40
51 -31 0 -70 62 -135 215 -72 171 -164 350 -206 400 -60 73 -100 98 -164 103
-51 4 -57 2 -88 -29z m139 -406 c9 -24 14 -47 10 -51 -9 -8 -128 -7 -150 1
-13 5 -13 11 1 49 9 24 28 58 42 77 l25 34 28 -33 c15 -19 35 -54 44 -77z"/>
<path d="M7170 9416 c-43 -9 -56 -15 -57 -31 -4 -31 24 -57 137 -125 225 -136
508 -262 830 -370 398 -133 445 -143 466 -101 16 31 4 56 -68 143 -124 149
-265 261 -443 351 -68 34 -232 92 -288 101 -15 3 -53 10 -85 15 -31 6 -120 13
-197 16 -77 3 -162 7 -190 9 -27 1 -75 -3 -105 -8z"/>
<path d="M1775 8944 c-107 -57 -210 -137 -310 -241 -82 -86 -98 -105 -162
-208 -104 -166 -168 -341 -187 -513 -4 -30 -10 -73 -15 -95 -24 -109 -30 -188
-17 -250 6 -33 10 -37 29 -31 35 10 73 51 176 189 110 148 152 212 246 375 75
130 235 448 235 467 0 7 4 13 9 13 5 0 12 12 15 28 4 15 15 45 25 67 79 167
83 181 53 208 -25 23 -39 21 -97 -9z"/>
<path d="M8100 8798 c-24 -9 -21 -34 10 -78 26 -37 234 -234 301 -285 192
-148 434 -320 484 -345 6 -3 95 -56 200 -119 104 -62 199 -115 211 -117 32 -6
55 21 49 58 -14 78 -119 264 -214 378 -84 101 -208 213 -292 265 -147 90 -247
133 -389 171 -52 14 -115 32 -140 40 -90 31 -186 45 -220 32z"/>
<path d="M995 8090 c-12 -4 -52 -41 -90 -82 -223 -238 -350 -550 -353 -868 0
-69 3 -150 8 -180 5 -30 11 -86 14 -125 7 -102 17 -155 37 -202 21 -48 36 -53
67 -20 36 39 162 354 208 522 2 6 10 35 19 65 21 73 20 68 49 195 46 203 98
484 112 617 5 50 4 57 -17 72 -26 18 -26 18 -54 6z"/>
<path d="M8874 7978 c-13 -21 10 -82 71 -183 57 -93 168 -256 200 -292 5 -6
21 -26 35 -44 51 -67 134 -166 208 -249 136 -151 416 -428 444 -439 34 -13 60
14 60 61 -1 78 -50 257 -104 377 -29 65 -119 220 -141 243 -7 7 -24 29 -38 48
-76 102 -234 238 -349 302 -25 14 -97 55 -161 92 -115 67 -213 103 -225 84z"/>
<path d="M427 7049 c-34 -20 -127 -184 -173 -307 -64 -169 -89 -329 -81 -517
7 -161 20 -223 97 -454 56 -171 98 -259 127 -268 36 -12 64 93 108 400 14 105
20 250 20 527 -1 333 -12 564 -28 595 -18 35 -38 42 -70 24z"/>
<path d="M9439 6969 c-6 -12 -9 -38 -5 -58 5 -31 46 -169 63 -211 3 -8 7 -19
9 -25 17 -69 223 -514 291 -630 27 -45 86 -147 98 -170 48 -87 179 -287 193
-294 19 -10 56 1 68 21 4 7 9 76 10 153 5 278 -68 527 -222 762 -84 129 -370
408 -471 462 -19 10 -24 8 -34 -10z"/>
<path d="M117 5899 c-26 -15 -76 -152 -92 -254 -3 -16 -10 -55 -15 -85 -13
-81 -5 -331 15 -425 33 -157 102 -330 179 -443 19 -28 56 -88 82 -131 57 -97
129 -181 154 -181 36 0 42 66 25 275 -4 58 -7 88 -20 185 -13 100 -42 253 -72
380 -13 58 -26 113 -28 123 -2 9 -6 21 -9 25 -3 5 -8 23 -11 40 -6 35 -96 335
-126 422 -17 48 -41 81 -58 80 -3 0 -14 -5 -24 -11z"/>
<path d="M9749 5878 c-8 -15 -10 -64 -5 -167 3 -80 8 -155 10 -167 2 -11 7
-46 10 -77 14 -127 79 -444 121 -587 7 -25 23 -81 35 -125 29 -104 108 -347
118 -361 12 -19 46 -24 64 -10 26 20 82 188 95 286 2 19 8 58 11 85 21 148 -7
385 -65 555 -27 77 -118 266 -133 275 -5 3 -25 35 -45 71 -56 99 -93 154 -139
202 -45 48 -60 51 -77 20z"/>
<path d="M9786 4733 c-17 -35 -32 -108 -51 -253 -4 -25 -10 -92 -21 -210 -6
-70 -6 -482 0 -565 2 -27 7 -99 11 -159 4 -60 8 -117 10 -126 2 -10 6 -53 10
-96 9 -93 17 -111 52 -120 21 -6 31 -2 50 22 59 73 127 218 168 361 26 90 29
101 44 213 20 147 -6 426 -50 537 -6 15 -31 83 -55 150 -63 178 -113 273 -144
273 -5 0 -16 -12 -24 -27z"/>
<path d="M89 4654 c-19 -23 -22 -45 -22 -189 0 -130 2 -163 23 -265 32 -166
131 -387 233 -522 87 -115 337 -357 412 -398 39 -22 47 -23 55 -10 21 32 8 90
-65 300 -64 181 -195 464 -305 655 -150 259 -247 416 -268 433 -22 17 -47 15
-63 -4z"/>
<path d="M9582 3654 c-73 -51 -253 -588 -318 -949 -34 -188 -54 -303 -58 -340
-3 -22 -8 -58 -12 -80 -13 -79 -9 -101 22 -121 24 -16 26 -16 57 7 30 21 65
58 132 134 101 117 233 382 259 525 3 19 9 46 12 60 12 59 14 82 18 207 2 72
0 153 -4 180 -4 26 -11 80 -14 118 -11 117 -16 148 -33 202 -20 66 -32 77 -61
57z"/>
<path d="M408 3463 c-14 -4 -42 -56 -33 -65 1 -1 5 -22 9 -45 10 -79 45 -202
81 -290 120 -289 333 -523 605 -667 30 -16 61 -33 68 -39 17 -13 109 -64 149
-82 17 -8 49 -17 72 -21 40 -6 41 -6 41 23 0 79 -267 465 -505 729 -112 126
-426 439 -450 451 -11 5 -28 8 -37 6z"/>
<path d="M9114 2707 c-25 -13 -149 -184 -239 -331 -122 -199 -257 -478 -370
-761 -26 -66 -53 -133 -60 -150 -52 -119 -13 -175 83 -119 270 157 512 481
588 787 16 66 32 164 38 232 3 28 8 77 13 110 12 86 8 212 -7 230 -14 17 -16
17 -46 2z"/>
<path d="M984 2362 c-23 -22 -13 -64 36 -163 97 -196 264 -391 430 -505 79
-55 248 -144 272 -144 8 0 18 -4 24 -9 5 -4 54 -21 109 -36 55 -15 136 -38
180 -51 82 -24 204 -38 206 -23 3 22 2 36 -8 59 -16 37 -192 203 -368 346
-143 117 -420 300 -675 447 -164 94 -184 102 -206 79z"/>
<path d="M8362 1763 c-81 -56 -276 -239 -416 -393 -162 -177 -536 -678 -536
-718 0 -11 7 -28 16 -36 26 -27 41 -25 154 17 179 66 319 157 461 297 149 148
233 280 312 490 20 52 47 123 61 157 23 60 35 110 41 180 3 30 1 33 -24 33
-16 0 -46 -12 -69 -27z"/>
<path d="M1728 1483 c-34 -9 -22 -65 26 -129 187 -250 475 -431 787 -494 150
-31 513 -43 582 -21 68 23 36 63 -128 160 -108 64 -275 149 -393 200 -160 70
-495 188 -712 251 -41 12 -88 26 -104 31 -16 5 -32 8 -35 8 -3 -1 -14 -3 -23
-6z"/>
<path d="M7505 1122 c-33 -6 -235 -106 -352 -173 -138 -79 -414 -264 -503
-336 -8 -7 -42 -34 -76 -60 -33 -26 -77 -61 -98 -78 -21 -16 -48 -38 -60 -48
-11 -11 -49 -42 -83 -70 -54 -43 -63 -55 -63 -83 0 -48 25 -58 129 -50 101 7
135 12 216 32 237 60 458 184 624 354 57 58 88 96 208 260 18 25 36 50 40 55
59 76 104 193 76 196 -5 0 -15 2 -23 3 -8 1 -24 1 -35 -2z"/>
<path d="M2706 774 c-9 -8 -16 -19 -16 -24 0 -42 72 -109 205 -190 156 -96
347 -161 545 -185 100 -13 295 -7 369 11 9 2 84 17 166 34 150 32 265 72 265
94 0 34 -49 64 -155 95 -135 40 -227 62 -360 86 -44 8 -91 17 -105 20 -13 2
-42 7 -65 10 -22 3 -51 8 -65 10 -59 10 -280 31 -435 40 -249 15 -333 15 -349
-1z"/>
<path d="M6305 645 c-348 -76 -687 -198 -1132 -411 -119 -57 -138 -77 -114
-122 11 -20 38 -29 171 -52 56 -9 290 -7 369 5 233 34 484 151 671 313 25 22
72 61 105 88 77 62 99 85 130 130 51 75 -9 90 -200 49z"/>
<path d="M4997 494 c-1 -1 -63 -4 -137 -8 -74 -3 -146 -8 -160 -10 -14 -3 -56
-7 -95 -11 -67 -6 -243 -30 -295 -40 -14 -3 -45 -8 -70 -11 -25 -3 -47 -8 -50
-9 -3 -2 -26 -6 -50 -10 -25 -3 -74 -13 -110 -21 -36 -8 -76 -17 -90 -20 -105
-21 -122 -39 -90 -91 30 -49 288 -141 445 -158 198 -22 415 -3 582 51 84 27
327 140 436 203 84 48 99 89 40 112 -26 10 -120 17 -286 22 -38 1 -69 1 -70 1z"/>
</g>
</svg>
